<svg xmlns="http://www.w3.org/2000/svg" width="32" height="32" viewBox="10.5 22.5 32 32"><path fill="#aaa" d="M26.5 23.5c-8.272 0-15 6.73-15 15 0 8.272 6.728 15 15 15 8.27 0 15-6.727 15-15s-6.73-15-15-15zm-3.087 5.37l.498.2v-.923l.48-.258.395.563.608.674-.404.307-1.076.207v-.547l-.495.547-.206-.31.203-.463zm-10.6 9.298c.07-2.903 1.046-5.58 2.66-7.768.053.005.09.02.09.02 0 .206-.28.255 0 .775.36.672.052.982.052.982s-.88.618-1.033.722c-.155.1-.568.67-.31.513.257-.155.566-.31.31.104-.26.413-.723 1.083-.826 1.342-.103.26-.62.877-.62 1.187 0 .31-.206.932-.154 1.19.035.18-.08.71-.17.928zm5.332 8.624l-.206.774.202.62s-.312.26-.515.26c-.193 0-.257.12-.466.062-1.967-1.84-3.396-4.245-4.015-6.964.066.018.16.066.295.187.196.17.31.26.57.36.257.108.36.26.67.417.312.155.21.054.62.517.415.464.363.464.466.725.1.26.257.514.36.67.104.155.413.257.568.36.153.105.412.206.566.206.156 0 .62.466.88.518.26.053.26.57.26.57l-.258.722zm2.065-19.935c-.67.723-.516.516-.67.722-.155.2-.104.254-.466.514-.36.257-.516.566-.516.566l-.568.208-.466-.208s-.413.156-.36-.052c.013-.053.036-.11.06-.17 1.263-1.167 2.744-2.097 4.376-2.725-.162.205-.356.418-.356.418s-.362 0-1.034.726zm15.754 18.54c-.054.207-.155.568-.207.774-.052.21-.31.62-.463.728-.155.104-.414.413-.57.465-.15.053-.257-.36-.206-.567.055-.207.31-.774.31-.774s.053-.31.105-.517.672-.464.672-.464l.414-.775c-.006 0 .045.21.045.362-.002.155-.052.568-.104.775zm.154-4.854c-.103.154-.413.567-.566.774-.157.206-.36.516-.672.773-.308.258-.31.516-.465.724-.153.206-.362.67-.362.67s.104 1.034.155 1.24c.052.207-.363.774-.363.774l-.465.466-.622.825.05.77s-.47.363-.728.57c-.257.205-.217.36-.422.57-.207.203-1.014.565-1.22.62-.207.05-1.347.204-1.347.204v-.465l-.02-.515s-.155-.62-.31-.827c-.158-.208-.09-.52-.35-.776-.26-.26-.354-.465-.405-.62-.052-.154.057-.62.057-.62s.21-.568.314-.774 0-.515-.104-.723c-.104-.206-.153-.724-.153-.878 0-.155-.417-.415-.57-.57-.154-.153-.103-.36-.103-.564 0-.21-.155-.673-.104-1.035.054-.36-.464-.103-.773 0-.31.105-.516-.103-.516-.413s-.566-.05-.93.154c-.362.207-.773.207-1.19.362-.41.155-.615-.154-.615-.154s-.365-.31-.62-.465c-.26-.155-.52-.464-.728-.723-.204-.26-.722-1.034-.77-1.342-.055-.31 0-.52 0-.88s0-.567.048-.824c.052-.26.207-.57.362-.827.155-.26.724-.57.877-.67.154-.107.516-.415.516-.62 0-.21.21-.31.31-.52.106-.206.468-.72.934-.516 0 0 .41-.05.564-.102.155-.052.568-.206.773-.31.207-.104.72-.152.72-.152s.408.162.564.162c.153 0 .658-.09.658-.09s.234.747.234.903.155.31.414.414c.254.105 1.443.363 1.96-.05.122-.096.517.155.517.155s1.29.26 1.496.413c.207.156.57.26.673.415.104.154.463.62.515.774.05.153.31.724.36.93.053.206.208.722.364.98.152.26 1.03 1.395 1.34 1.912l.93-.155c0 .004-.102.467-.206.623zm3.768-1.96c-.05-.21-.36-.932-.36-.932s-.31-.41-.516-.514c-.205-.103-.362-.36-.724-.567-.362-.21-.516-.31-.825-.31-.31 0-.614-.416-.98-.62-.36-.207-.41-.105-.41-.105s.41.62.41.773c0 .155.464.414.93.31 0 0 .31.568.467.723.153.155-.054.31-.36.517-.312.205-.26.155-.417.31-.156.154-.67.415-.826.517-.155.103-.773.413-1.083.103-.15-.148-.103-.463-.205-.67-.104-.208-1.188-1.81-1.705-2.53-.09-.127-.31-.52-.464-.62-.155-.104.36-.104.36-.104s0-.36-.05-.618c-.055-.26.05-.62.05-.62s-.516.31-.673.414c-.153.103-.31-.206-.515-.466-.207-.257-.414-.567-.464-.826-.054-.257.257-.36.257-.36l.467-.258s.57-.105.93-.054c.36.052.93.104.93.104s.156-.36-.05-.517c-.21-.153-.674-.412-.88-.36-.208.05.1-.258.36-.466l-.574-.103s-.517.26-.672.312c-.154.05-.423.154-.63.413-.207.255.08.62-.124.72-.207.104-.346.154-.503.205-.153.052-.646 0-.646 0-.534 0-.192.487-.052.66l-.414-.504-.305-.723s-.44-.31-.647-.41c-.207-.106-.842-.47-.842-.47l.044.468.597.604.054.013.31.412-.69.053v-.41c-.643-.157-.475-.317-.55-.367-.152-.102-.51-.36-.51-.36s-.61.105-.766.157c-.154.05-.198.205-.506.31-.31.102-.45.257-.555.412-.1.152-.437.617-.642.823-.207.208-.592.155-.745.155-.157 0-.9-.207-.9-.207v-.875s.1-.49.05-.646l.452-.074.755-.156.22-.154.318-.414s-.355-.258-.1-.618c.125-.173.57-.206.776-.36.206-.156.52-.26.52-.26s.36-.308.723-.67c0 0 .256-.157.565-.26 0 0 .88.774 1.034.774s.723-.36.723-.36.157-.465.106-.62-.31-.67-.31-.67-.156.256-.31.463c-.155.21-.26.467-.26.467s-.723-.05-.774-.204c-.052-.155-.153-.41-.207-.563-.05-.155-.464-.15-.77-.047-.315.104.047-.558.047-.558s.31-.39.518-.39c.206 0 .674-.264.88-.315.205-.05.826-.286 1.082-.286.26 0 .57.11.727.11h.773l1.084-.086s.93.344.62.552c0 0 .363.223.52.377.144.147.52-.134.732-.254 3.864 2.425 6.446 6.714 6.446 11.604 0 .263-.02.52-.038.777-.094-.245-.24-.562-.276-.698z"/></svg>