<svg xmlns="http://www.w3.org/2000/svg" width="32" height="32" viewBox="22.846 34.846 32 32"><path fill="#aaa" d="M53.846 41.543c-1.103.49-2.29.82-3.535.968 1.272-.76 2.248-1.966 2.708-3.404-1.19.707-2.506 1.22-3.908 1.495-1.123-1.195-2.723-1.943-4.492-1.943-3.4 0-6.156 2.756-6.156 6.155 0 .48.056.95.16 1.402-5.115-.257-9.65-2.707-12.687-6.432-.53.91-.833 1.967-.833 3.096 0 2.136 1.086 4.02 2.737 5.122-1.01-.03-1.96-.31-2.788-.77v.078c0 2.98 2.12 5.47 4.937 6.035-.518.14-1.062.215-1.623.215-.397 0-.783-.038-1.158-.11.782 2.445 3.055 4.226 5.75 4.274-2.107 1.65-4.76 2.635-7.645 2.635-.497 0-.987-.028-1.47-.086 2.726 1.748 5.96 2.767 9.436 2.767 11.323 0 17.513-9.38 17.513-17.512 0-.268-.005-.533-.017-.798 1.203-.866 2.246-1.95 3.07-3.184z"/></svg>